HIERARCHY
ROOT reference
{
  OFFSET 0 0 0
  CHANNELS 6 Xposition Yposition Zposition Zrotation Xrotation Yrotation
  JOINT Hips
  {
    OFFSET 339.145 90.8604 236.464
    CHANNELS 3 Zrotation Xrotation Yrotation
    JOINT RightUpLeg
    {
      OFFSET -9.24113 -1.522 -0.0337757
      CHANNELS 3 Zrotation Xrotation Yrotation
      JOINT RightLeg
      {
        OFFSET 0.0344394 -41.8985 0.100154
        CHANNELS 3 Zrotation Xrotation Yrotation
        JOINT RightFoot
        {
          OFFSET -0.415571 -42.0751 0.023027
          CHANNELS 3 Zrotation Xrotation Yrotation
          End Site
          {
            OFFSET 0 -7.69 17.5
          }
        }
      }
    }
    JOINT LeftUpLeg
    {
      OFFSET 9.30897 -1.67379 -0.0291548
      CHANNELS 3 Zrotation Xrotation Yrotation
      JOINT LeftLeg
      {
        OFFSET 0.0832755 -41.864 -0.14338
        CHANNELS 3 Zrotation Xrotation Yrotation
        JOINT LeftFoot
        {
          OFFSET 0.17151 -41.5225 0.735469
          CHANNELS 3 Zrotation Xrotation Yrotation
          End Site
          {
            OFFSET 0 -7.69 17.5
          }
        }
      }
    }
    JOINT Spine
    {
      OFFSET 0.00853273 14.2903 0.0777264
      CHANNELS 3 Zrotation Xrotation Yrotation
      JOINT Spine1
      {
        OFFSET 0.0173944 9.71323 0.029081
        CHANNELS 3 Zrotation Xrotation Yrotation
        JOINT Spine2
        {
          OFFSET 0.0412483 10.1247 -0.0145163
          CHANNELS 3 Zrotation Xrotation Yrotation
          JOINT Spine3
          {
            OFFSET 0.0279063 9.71793 0.00755232
            CHANNELS 3 Zrotation Xrotation Yrotation
            JOINT Neck
            {
              OFFSET 0.0852486 10.3712 0.0268485
              CHANNELS 3 Zrotation Xrotation Yrotation
              JOINT Head
              {
                OFFSET 0.0739267 9.48251 0.0332551
                CHANNELS 3 Zrotation Xrotation Yrotation
                End Site
                {
                  OFFSET 0 15.95 0
                }
              }
            }
            JOINT RightShoulder
            {
              OFFSET -3.14957 6.95772 0.0300988
              CHANNELS 3 Zrotation Xrotation Yrotation
              JOINT RightArm
              {
                OFFSET -12.7513 0.0411148 0.0791701
                CHANNELS 3 Zrotation Xrotation Yrotation
                JOINT RightForeArm
                {
                  OFFSET -26.4959 0.0361336 0.259434
                  CHANNELS 3 Zrotation Xrotation Yrotation
                  JOINT RightHand
                  {
                    OFFSET -25.9829 -0.0837334 0.191464
                    CHANNELS 3 Zrotation Xrotation Yrotation
                    JOINT RightHandThumb1
                    {
                      OFFSET -2.48905 0.190105 3.12053
                      CHANNELS 3 Zrotation Xrotation Yrotation
                      JOINT RightHandThumb2
                      {
                        OFFSET -3.68274 0 0
                        CHANNELS 3 Zrotation Xrotation Yrotation
                        JOINT RightHandThumb3
                        {
                          OFFSET -2.55832 0 0
                          CHANNELS 3 Zrotation Xrotation Yrotation
                          End Site
                          {
                            OFFSET -2.194 0 0
                          }
                        }
                      }
                    }
                    JOINT RightInHandIndex
                    {
                      OFFSET -3.22368 0.508421 1.97842
                      CHANNELS 3 Zrotation Xrotation Yrotation
                      JOINT RightHandIndex1
                      {
                        OFFSET -5.21684 -0.091368 0.999158
                        CHANNELS 3 Zrotation Xrotation Yrotation
                        JOINT RightHandIndex2
                        {
                          OFFSET -3.61937 0 0
                          CHANNELS 3 Zrotation Xrotation Yrotation
                          JOINT RightHandIndex3
                          {
                            OFFSET -2.0521 0 0
                            CHANNELS 3 Zrotation Xrotation Yrotation
                            End Site
                            {
                              OFFSET -1.805 0 0
                            }
                          }
                        }
                      }
                    }
                    JOINT RightInHandMiddle
                    {
                      OFFSET -3.38211 0.517263 0.756737
                      CHANNELS 3 Zrotation Xrotation Yrotation
                      JOINT RightHandMiddle1
                      {
                        OFFSET -5.17411 -0.084 0.313895
                        CHANNELS 3 Zrotation Xrotation Yrotation
                        JOINT RightHandMiddle2
                        {
                          OFFSET -3.94947 0 0
                          CHANNELS 3 Zrotation Xrotation Yrotation
                          JOINT RightHandMiddle3
                          {
                            OFFSET -2.47579 0 0
                            CHANNELS 3 Zrotation Xrotation Yrotation
                            End Site
                            {
                              OFFSET -1.975 0 0
                            }
                          }
                        }
                      }
                    }
                    JOINT RightInHandRing
                    {
                      OFFSET -3.36516 0.537895 -0.128947
                      CHANNELS 3 Zrotation Xrotation Yrotation
                      JOINT RightHandRing1
                      {
                        OFFSET -4.63474 -0.022105 -0.478947
                        CHANNELS 3 Zrotation Xrotation Yrotation
                        JOINT RightHandRing2
                        {
                          OFFSET -3.44238 0 0
                          CHANNELS 3 Zrotation Xrotation Yrotation
                          JOINT RightHandRing3
                          {
                            OFFSET -2.3881 0 0
                            CHANNELS 3 Zrotation Xrotation Yrotation
                            End Site
                            {
                              OFFSET -1.857 0 0
                            }
                          }
                        }
                      }
                    }
                    JOINT RightInHandPinky
                    {
                      OFFSET -3.16105 0.469368 -1.20179
                      CHANNELS 3 Zrotation Xrotation Yrotation
                      JOINT RightHandPinky1
                      {
                        OFFSET -4.14105 -0.022105 -1.09053
                        CHANNELS 3 Zrotation Xrotation Yrotation
                        JOINT RightHandPinky2
                        {
                          OFFSET -2.75653 0 0
                          CHANNELS 3 Zrotation Xrotation Yrotation
                          JOINT RightHandPinky3
                          {
                            OFFSET -1.74189 0 0
                            CHANNELS 3 Zrotation Xrotation Yrotation
                            End Site
                            {
                              OFFSET -1.645 0 0
                            }
                          }
                        }
                      }
                    }
                  }
                }
              }
            }
            JOINT LeftShoulder
            {
              OFFSET 3.25273 6.91522 -0.0295735
              CHANNELS 3 Zrotation Xrotation Yrotation
              JOINT LeftArm
              {
                OFFSET 12.7785 0.0134102 -0.0213482
                CHANNELS 3 Zrotation Xrotation Yrotation
                JOINT LeftForeArm
                {
                  OFFSET 26.5044 -0.0446277 0.0404034
                  CHANNELS 3 Zrotation Xrotation Yrotation
                  JOINT LeftHand
                  {
                    OFFSET 25.9955 -0.0467726 -0.0166804
                    CHANNELS 3 Zrotation Xrotation Yrotation
                    JOINT LeftHandThumb1
                    {
                      OFFSET 2.48905 0.190105 3.12053
                      CHANNELS 3 Zrotation Xrotation Yrotation
                      JOINT LeftHandThumb2
                      {
                        OFFSET 3.68274 0 0
                        CHANNELS 3 Zrotation Xrotation Yrotation
                        JOINT LeftHandThumb3
                        {
                          OFFSET 2.55832 0 0
                          CHANNELS 3 Zrotation Xrotation Yrotation
                          End Site
                          {
                            OFFSET 2.194 0 0
                          }
                        }
                      }
                    }
                    JOINT LeftInHandIndex
                    {
                      OFFSET 3.22368 0.508421 1.97842
                      CHANNELS 3 Zrotation Xrotation Yrotation
                      JOINT LeftHandIndex1
                      {
                        OFFSET 5.21684 -0.091368 0.999158
                        CHANNELS 3 Zrotation Xrotation Yrotation
                        JOINT LeftHandIndex2
                        {
                          OFFSET 3.61937 0 0
                          CHANNELS 3 Zrotation Xrotation Yrotation
                          JOINT LeftHandIndex3
                          {
                            OFFSET 2.0521 0 0
                            CHANNELS 3 Zrotation Xrotation Yrotation
                            End Site
                            {
                              OFFSET 1.805 0 0
                            }
                          }
                        }
                      }
                    }
                    JOINT LeftInHandMiddle
                    {
                      OFFSET 3.38211 0.517263 0.756737
                      CHANNELS 3 Zrotation Xrotation Yrotation
                      JOINT LeftHandMiddle1
                      {
                        OFFSET 5.17411 -0.084 0.313895
                        CHANNELS 3 Zrotation Xrotation Yrotation
                        JOINT LeftHandMiddle2
                        {
                          OFFSET 3.94947 0 0
                          CHANNELS 3 Zrotation Xrotation Yrotation
                          JOINT LeftHandMiddle3
                          {
                            OFFSET 2.47579 0 0
                            CHANNELS 3 Zrotation Xrotation Yrotation
                            End Site
                            {
                              OFFSET 1.975 0 0
                            }
                          }
                        }
                      }
                    }
                    JOINT LeftInHandRing
                    {
                      OFFSET 3.36516 0.537895 -0.128947
                      CHANNELS 3 Zrotation Xrotation Yrotation
                      JOINT LeftHandRing1
                      {
                        OFFSET 4.63474 -0.022105 -0.478947
                        CHANNELS 3 Zrotation Xrotation Yrotation
                        JOINT LeftHandRing2
                        {
                          OFFSET 3.44238 0 0
                          CHANNELS 3 Zrotation Xrotation Yrotation
                          JOINT LeftHandRing3
                          {
                            OFFSET 2.3881 0 0
                            CHANNELS 3 Zrotation Xrotation Yrotation
                            End Site
                            {
                              OFFSET 1.857 0 0
                            }
                          }
                        }
                      }
                    }
                    JOINT LeftInHandPinky
                    {
                      OFFSET 3.16105 0.469368 -1.20179
                      CHANNELS 3 Zrotation Xrotation Yrotation
                      JOINT LeftHandPinky1
                      {
                        OFFSET 4.14105 -0.022105 -1.09053
                        CHANNELS 3 Zrotation Xrotation Yrotation
                        JOINT LeftHandPinky2
                        {
                          OFFSET 2.75653 0 0
                          CHANNELS 3 Zrotation Xrotation Yrotation
                          JOINT LeftHandPinky3
                          {
                            OFFSET 1.74189 0 0
                            CHANNELS 3 Zrotation Xrotation Yrotation
                            End Site
                            {
                              OFFSET 1.645 0 0
                            }
                          }
                        }
                      }
                    }
                  }
                }
              }
            }
          }
        }
      }
    }
  }
}
MOTION
Frames: 2
Frame Time: 0.00833333
3.000000000000000000e+02 0.000000000000000000e+00 0.000000000000000000e+00 0.000000000000000000e+00 0.000000000000000000e+00 0.000000000000000000e+00 -1.406430873510239495e-02 2.411711976487612707e-02 8.050476993571274720e-02 -9.511825322141528871e-02 -1.845453030378989626e-03 -9.029891973500948910e-02 4.202122029420744809e-02 5.918674181113653399e-02 -7.032217063329711249e-02 8.142829279333999373e-03 -2.593918822258453952e-02 2.088219488837449178e-02 -4.655284820016394182e-02 -2.158121801081017144e-02 -6.569342862750279788e-02 2.214646476242064163e-02 -1.472578768544096674e-02 -1.417939442569843451e-02 -2.436570744068212307e-03 1.399431560728518114e-04 -2.456829097779643367e-02 4.765949581410321156e-04 9.177792290313161253e-03 -1.344492023483634825e-03 1.120858123242465733e-04 2.396946416247546473e-03 -4.753162068890219062e-04 -1.954361270820262429e-03 3.873974924153931413e-03 -7.103022929847734902e-04 2.830577840324899862e-03 2.711175331054735838e-04 -2.278485592591735897e-03 2.410279140974613907e-03 -8.968168073146459479e-04 2.318746941639663814e-03 5.020985202847227935e-02 8.054360404747966037e-03 -4.818451638412463850e-02 1.691405220013199318e-01 6.837511157274510365e-02 -4.234965989394616770e-01 -2.470311404394072985e-01 7.893158027366604657e-01 2.429333413907548700e-01 -8.361895366591196588e-01 6.364580134660381416e-01 -8.396504982442680731e-01 3.304777507539225501e-01 -7.050356141606237692e-01 7.493046376756601346e-01 0.000000000000000000e+00 0.000000000000000000e+00 0.000000000000000000e+00 -9.462327028384659594e-15 -2.642252240336446792e-16 0.000000000000000000e+00 -1.044972965566291883e-14 1.092817705201224114e-15 0.000000000000000000e+00 -7.708191524364465797e-17 3.685441981113682100e-15 1.143575115034952532e-16 0.000000000000000000e+00 0.000000000000000000e+00 0.000000000000000000e+00 0.000000000000000000e+00 -2.309996968411275768e-15 -1.238045632544340362e-14 0.000000000000000000e+00 -3.984114277006329649e-15 -9.378899421009496937e-15 -7.708191524364465797e-17 3.685441981113682100e-15 1.143575115034952532e-16 0.000000000000000000e+00 -3.616423007896746896e-15 -3.751366897909650954e-15 0.000000000000000000e+00 -2.110916517737887149e-15 -8.834734583167637686e-15 0.000000000000000000e+00 -6.326481737854272194e-15 -3.060660398321410102e-14 -7.708191524364465797e-17 3.685441981113682100e-15 1.143575115034952532e-16 0.000000000000000000e+00 0.000000000000000000e+00 0.000000000000000000e+00 0.000000000000000000e+00 -4.763418253833590189e-15 -1.913547582660644329e-14 0.000000000000000000e+00 -4.799459705600372992e-15 -2.495084721451271437e-14 -7.708191524364465797e-17 3.685441981113682100e-15 1.143575115034952532e-16 0.000000000000000000e+00 0.000000000000000000e+00 0.000000000000000000e+00 0.000000000000000000e+00 -4.384288667475870261e-15 -1.455723621886551917e-14 0.000000000000000000e+00 -1.363255815343681012e-15 -2.280746225096620989e-14 1.090624405131519203e-01 -2.899121577753709447e-02 -8.379681959197818331e-02 -6.554125720220354001e-01 -3.747493766498575241e-01 6.997541005907985667e-01 -7.972134961494135030e-01 7.615319461539864498e-01 -9.584746883477204271e-01 -1.130015817490665625e-01 -2.336333273485465822e-01 -2.231628465164414710e-01 0.000000000000000000e+00 0.000000000000000000e+00 0.000000000000000000e+00 -4.612770035566259548e-15 1.144655514372361719e-14 0.000000000000000000e+00 5.163462147115778689e-15 4.580305624935353313e-15 0.000000000000000000e+00 6.681762674418838522e-16 -5.891869421588686124e-16 -1.638030592255472650e-15 0.000000000000000000e+00 0.000000000000000000e+00 0.000000000000000000e+00 0.000000000000000000e+00 2.112153395146487916e-15 -1.706556446424544858e-15 0.000000000000000000e+00 -2.644543625248754382e-16 -1.050328002119716954e-14 6.681762674418838522e-16 -5.891869421588686124e-16 -1.638030592255472650e-15 0.000000000000000000e+00 2.280059093869396595e-17 -1.544435072135846035e-15 0.000000000000000000e+00 2.852117627855289857e-15 -2.992489120636561840e-15 0.000000000000000000e+00 4.668026719486123823e-16 -5.395130435418654485e-15 6.681762674418838522e-16 -5.891869421588686124e-16 -1.638030592255472650e-15 0.000000000000000000e+00 0.000000000000000000e+00 0.000000000000000000e+00 0.000000000000000000e+00 6.303668324195512787e-16 -4.914318086920304478e-15 0.000000000000000000e+00 6.146045180260230451e-16 -2.620045184343426064e-15 6.681762674418838522e-16 -5.891869421588686124e-16 -1.638030592255472650e-15 0.000000000000000000e+00 0.000000000000000000e+00 0.000000000000000000e+00 0.000000000000000000e+00 1.438046550454030025e-16 -4.947867886412633792e-15 0.000000000000000000e+00 -7.512674080984717430e-16 7.069638151657882476e-16
3.000000000000000000e+02 0.000000000000000000e+00 0.000000000000000000e+00 0.000000000000000000e+00 0.000000000000000000e+00 0.000000000000000000e+00 -7.620555406617696322e-03 1.630589112525335921e-02 6.533514986068153507e-02 -4.695464641794935140e-02 -6.682960328132418965e-04 9.230235430937573649e-03 3.629469957063506669e-02 3.318849313996549699e-02 -9.033018718805044256e-02 2.257757084820218550e-03 -1.984751533193700179e-02 -1.219114511545011173e-02 -3.069540881034620028e-02 -2.725113305166671981e-02 -5.586511451344518264e-02 -6.219406079132626039e-03 2.687902932853118362e-02 -4.395733109609505779e-02 2.122046737937194338e-02 -2.905657544529680406e-02 2.505055144007926893e-02 2.568140173256976480e-03 7.378028677548620524e-03 -6.926448221341881435e-03 1.112942666781161329e-03 1.773267401602293116e-03 -1.815278346141974922e-03 1.618639232517043005e-04 2.884844622955407001e-03 -2.877403038571497290e-03 1.193420068506361982e-03 -1.684991565887980405e-04 -1.994893401580069298e-03 9.337191647443633701e-05 -1.556461525225742975e-03 2.672921305104014947e-03 2.072730576710299713e-02 5.315272683389918665e-03 -4.203780872024564380e-02 1.641717203403691705e-01 9.654372057509802429e-02 -3.970280269630662162e-01 -2.418449230252650850e-01 6.206297661860801229e-01 1.365915344321250169e-01 -7.293815470507464260e-01 7.661612684233805037e-01 -7.983644309109414472e-01 3.877833846938039675e-01 -7.968960939117739617e-01 9.596115826938306226e-01 0.000000000000000000e+00 0.000000000000000000e+00 0.000000000000000000e+00 -1.209551733751953994e-14 3.045165707392830211e-15 0.000000000000000000e+00 -5.189706147801966466e-15 -6.838295636122888381e-16 0.000000000000000000e+00 -2.577542241776447273e-16 5.289769913814420140e-15 3.207254607124668422e-16 0.000000000000000000e+00 0.000000000000000000e+00 0.000000000000000000e+00 0.000000000000000000e+00 -4.707743123693602641e-15 -7.244415487877189021e-15 0.000000000000000000e+00 -2.831370412581288981e-15 -1.988873794356371167e-14 -2.577542241776447273e-16 5.289769913814420140e-15 3.207254607124668422e-16 0.000000000000000000e+00 -3.512044431528601968e-15 -7.370296877048216247e-15 0.000000000000000000e+00 -1.233253610490848201e-15 -9.256910442469924181e-15 0.000000000000000000e+00 -3.212680807770806705e-15 -3.008349581134334473e-14 -2.577542241776447273e-16 5.289769913814420140e-15 3.207254607124668422e-16 0.000000000000000000e+00 0.000000000000000000e+00 0.000000000000000000e+00 0.000000000000000000e+00 -5.445575969224040485e-15 -8.242270104805858670e-15 0.000000000000000000e+00 -4.631935040941294263e-15 -2.715045745565656920e-14 -2.577542241776447273e-16 5.289769913814420140e-15 3.207254607124668422e-16 0.000000000000000000e+00 0.000000000000000000e+00 0.000000000000000000e+00 0.000000000000000000e+00 -6.148792776018324533e-15 -1.036946196854137244e-14 0.000000000000000000e+00 2.403868534314649891e-15 -3.089034686911293902e-14 9.583519902003007074e-02 -3.272932312976872121e-02 -1.169542521344427849e-01 -7.351072511741154614e-01 -3.939849610907349975e-01 7.308696051662910698e-01 -8.246974624656476793e-01 1.062084104091805203e+00 -9.885830690103956098e-01 -1.253063560022953937e-01 -2.220204733263506924e-01 -2.822835779355335473e-01 0.000000000000000000e+00 0.000000000000000000e+00 0.000000000000000000e+00 -7.184746427493184339e-15 7.605442880837746871e-15 0.000000000000000000e+00 5.069562117580064942e-15 2.117488875473176742e-15 0.000000000000000000e+00 9.444221241625415977e-16 6.054093732507241397e-16 -9.567745412814770640e-16 0.000000000000000000e+00 0.000000000000000000e+00 0.000000000000000000e+00 0.000000000000000000e+00 -3.413667729515251803e-15 2.856249859695728306e-15 0.000000000000000000e+00 -6.447368031174353014e-16 -1.172718253537057768e-16 9.444221241625415977e-16 6.054093732507241397e-16 -9.567745412814770640e-16 0.000000000000000000e+00 2.306276969247486458e-17 -2.031911919801583306e-15 0.000000000000000000e+00 -8.799093998700900345e-16 1.421499122841050488e-15 0.000000000000000000e+00 -1.261023144667931520e-15 3.192359156665515545e-15 9.444221241625415977e-16 6.054093732507241397e-16 -9.567745412814770640e-16 0.000000000000000000e+00 0.000000000000000000e+00 0.000000000000000000e+00 0.000000000000000000e+00 3.138477582846378087e-16 -1.221546101484765806e-15 0.000000000000000000e+00 -6.786044356861532001e-16 8.125927947075388382e-16 9.444221241625415977e-16 6.054093732507241397e-16 -9.567745412814770640e-16 0.000000000000000000e+00 0.000000000000000000e+00 0.000000000000000000e+00 0.000000000000000000e+00 -7.476908443959476815e-16 5.095345860915586885e-15 0.000000000000000000e+00 4.736266843900462125e-16 6.099065380090087883e-15
